<svg version="1.2" xmlns="http://www.w3.org/2000/svg" viewBox="0 0 1230 88" width="1230" height="88">
	<title>logo_h-svg</title>
	<style>
		.s0 { fill: #1a1a1a } 
	</style>
	<g id="Layer">
		<path id="Layer" class="s0" d="m0.1 87.8v-87.6h11.6v87.6z"/>
		<path id="Layer" class="s0" d="m30 87.8v-87.6h10.4l45.7 66.7v-66.7h11.6v87.6h-10.4l-45.7-66.5v66.5z"/>
		<path id="Layer" class="s0" d="m140.9 87.8l-30.9-87.6h12.3l26 74.4 25.9-74.4h12.3l-31 87.6z"/>
		<path id="Layer" class="s0" d="m198.8 87.8v-87.6h55.7v10.2h-44.1v27.7h38.6v10.1h-38.6v29.4h44.7v10.2c0 0-56.3 0-56.3 0z"/>
		<path id="Layer" class="s0" d="m299.7 89q-7.5 0-12.9-1.9-5.4-2-9-5.2-3.5-3.1-5.7-6.5-2.1-3.5-3.2-6.6-1-3.1-1.6-7h11.8q0.7 3.3 1.9 5.8 1.1 2.4 3.3 5 2.3 2.5 6.1 4.2 3.8 1.7 9.6 1.7 8.7 0 13.8-4.2 5.1-4.2 5.1-11 0-5.8-3.8-9-3.9-3.2-11-5l-11.6-2.8q-6.2-1.6-11.4-4.3-5.3-2.8-8.4-7.4-3.2-4.5-3.2-11.4 0-7.7 3.8-13.2 3.8-5.4 10.3-8.3 6.5-2.9 14.8-2.9 8.1 0 13.4 2.5 5.3 2.5 8.5 6.1 3.2 3.6 4.8 7.2 1.5 3.6 2.5 8.6h-11.4q-1-4.3-2.7-7.1-1.8-2.7-5.5-4.9-3.6-2.1-9.9-2.1-8.6 0-12.9 4-4.3 4.1-4.3 9.3 0 4.7 3.4 7.6 3.5 2.9 9.5 4.5l12.6 3q6.7 1.7 12.2 4.8 5.4 3.2 8.6 8.1 3.2 4.9 3.2 12 0 7.1-3.5 13.2-3.5 6-10.3 9.6-6.8 3.6-16.9 3.6z"/>
		<path id="Layer" class="s0" d="m365.7 87.8v-77.4h-27.4v-10.2h66.3v10.2h-27.3v77.4z"/>
		<path id="Layer" class="s0" d="m422 87.8v-87.6h24.6l20 45.1 20.6-45.1h23.8v87.6h-18v-59.7l-18 39.2h-16.9l-18.1-39.4v59.9z"/>
		<path id="Layer" fill-rule="evenodd" class="s0" d="m521.9 87.8l29.8-87.6h24.3l29.9 87.6h-19.2l-5.6-17.2h-34.3l-5.7 17.2zm29.9-33h24.2l-12.1-36.6z"/>
		<path id="Layer" class="s0" d="m616.8 87.8v-87.6h16.7l37.7 55.9v-55.9h18.2v87.6h-17l-37.5-54.3v54.3z"/>
		<path id="Layer" fill-rule="evenodd" class="s0" d="m700.3 87.8l29.8-87.6h24.3l29.8 87.6h-19.2l-5.5-17.2h-34.4l-5.7 17.2zm30-33h24.2l-12.1-36.6z"/>
		<path id="Layer" class="s0" d="m831.8 89q-11 0-19.3-3.8-8.3-3.8-13.8-10.2-5.5-6.5-8.2-14.5-2.7-8-2.7-16.4 0-8.4 2.7-16.4 2.8-8.1 8.3-14.6 5.5-6.4 13.9-10.3 8.5-3.8 19.7-3.8 8.8 0 15.1 2.2 6.3 2.2 10.6 5.7 4.3 3.5 6.8 7.4 2.6 3.9 3.9 7.4 1.4 3.5 2.2 7.8h-18.1q-1.4-4.2-3.6-7.1-2.1-2.9-6.2-5.1-4.1-2.2-10.7-2.2-8.6 0-14.4 4.2-5.7 4.2-8.6 10.8-2.9 6.5-2.9 13.6 0 7.4 2.9 14.1 3 6.7 8.7 10.9 5.8 4.2 14.4 4.2 9.5 0 15-4.9 5.5-4.8 6.6-13.1h-22.8v-14.4h40.8v6.8q0 13.7-5.3 23-5.3 9.3-14.3 14-9.1 4.7-20.7 4.7z"/>
		<path id="Layer" class="s0" d="m883.9 87.8v-87.6h60.4v15.8h-42.1v19.7h36.7v15.3h-36.8v20.9h42.8v15.9c0 0-61 0-61 0z"/>
		<path id="Layer" fill-rule="evenodd" class="s0" d="m959.2 87.8v-87.6h35.5q9.8 0 16.7 3.4 6.9 3.4 10.7 9.5 3.7 6 3.7 14 0 8.6-4.4 15.1-4.4 6.4-12.4 9.4l19 36.2h-20.2l-17.4-33.7h-12.9v33.7zm35.3-71.9h-17.1v23.2h17.1q6 0 9.4-3.3 3.5-3.3 3.5-8.1 0-5-3.5-8.4-3.4-3.4-9.4-3.4z"/>
		<path id="Layer" class="s0" d="m1056.5-1h30.3v90h-30.3z"/>
		<path id="Layer" class="s0" d="m1104.2-1h30.3v90h-30.3z"/>
		<path id="Layer" class="s0" d="m1151.9-1h30.3v45h-30.3z"/>
		<path id="Layer" class="s0" d="m1199.5-1h30.4v90h-30.4z"/>
	</g>
</svg>