<svg version="1.2" xmlns="http://www.w3.org/2000/svg" viewBox="0 0 1266 430" width="1266" height="430">
	<title>logo-svg</title>
	<style>
		.s0 { fill: #1a1a1a } 
	</style>
	<g id="Layer">
		<path id="Layer" class="s0" d="m2.9 182.9v-182.6h24.1v182.6z"/>
		<path id="Layer" class="s0" d="m65.1 182.9v-182.6h21.7l95.2 138.9v-138.9h24.2v182.6h-21.7l-95.3-138.7v138.7z"/>
		<path id="Layer" class="s0" d="m296.3 182.9l-64.4-182.6h25.6l54.1 154.9 54-154.9h25.7l-64.7 182.6z"/>
		<path id="Layer" class="s0" d="m416.9 182.9v-182.6h116v21.2h-91.8v57.7h80.4v21.3h-80.4v61.1h93v21.3c0 0-117.2 0-117.2 0z"/>
		<path id="Layer" class="s0" d="m627.2 185.4q-15.8-0.1-27.1-4.1c-7.5-2.7-13.7-6.3-18.6-10.6q-7.4-6.6-11.8-13.7-4.5-7.2-6.7-13.7-2.2-6.6-3.5-14.7h24.7q1.5 6.9 3.8 12.1 2.4 5.2 7.1 10.5 4.7 5.3 12.6 8.7 7.8 3.5 20 3.5 18.2 0 28.8-8.8 10.6-8.8 10.6-22.8 0-12.1-8-18.8-8-6.6-22.8-10.3l-24.2-6q-12.8-3.2-23.8-9-11-5.8-17.5-15.3-6.6-9.5-6.6-23.8 0-16 7.9-27.4 7.9-11.3 21.5-17.4 13.6-6 30.9-6 16.7 0 27.8 5.2 11.1 5.1 17.8 12.7 6.7 7.5 9.9 15 3.2 7.6 5.1 17.9h-23.6q-2-8.9-5.7-14.7-3.7-5.8-11.4-10.2-7.6-4.4-20.7-4.4-17.8 0-26.8 8.3-9 8.4-9 19.3 0 9.9 7.2 15.9 7.1 6.1 19.7 9.3l26.2 6.4q14 3.4 25.4 10 11.3 6.5 18 16.8 6.7 10.2 6.7 25 0 14.8-7.3 27.4-7.3 12.6-21.5 20.1-14.2 7.5-35.1 7.6z"/>
		<path id="Layer" class="s0" d="m764.6 182.9v-161.4h-57v-21.2h138.2v21.2h-57v161.4z"/>
		<path id="Layer" class="s0" d="m-0.1 429.6v-182.6h51.3l41.7 94 43-94h49.6v182.6h-37.5v-124.3l-37.6 81.7h-35.2l-37.8-82.2v124.8z"/>
		<path id="Layer" fill-rule="evenodd" class="s0" d="m208.2 429.6l62.1-182.6h50.6l62.2 182.6h-40l-11.6-35.8h-71.5l-11.9 35.8zm62.5-68.8h50.3l-25.2-76.3z"/>
		<path id="Layer" class="s0" d="m405.8 429.6v-182.6h34.8l78.7 116.5v-116.5h37.8v182.6h-35.3l-78.2-113.2v113.2z"/>
		<path id="Layer" fill-rule="evenodd" class="s0" d="m579.8 429.6l62.2-182.6h50.5l62.2 182.6h-39.9l-11.6-35.8h-71.6l-11.8 35.8zm62.4-68.8h50.3l-25.2-76.3z"/>
		<path id="Layer" class="s0" d="m853.9 432.1q-22.9 0-40.2-7.9-17.2-7.9-28.7-21.3-11.5-13.5-17.2-30.2-5.6-16.6-5.6-34.1 0-17.5 5.8-34.3 5.7-16.8 17.2-30.2 11.5-13.5 29-21.5 17.5-8 41-8 18.3 0 31.5 4.5 13.2 4.6 22 11.9 8.9 7.3 14.2 15.4 5.3 8.1 8.2 15.4 2.8 7.3 4.5 16.4h-37.7c-2-5.9-4.5-10.9-7.4-14.9-3-4.1-7.3-7.6-13-10.6q-8.5-4.6-22.3-4.6-18 0-30 8.8-12 8.7-18 22.4-6.1 13.7-6.1 28.5 0 15.4 6.2 29.3 6.2 13.9 18.2 22.7 11.9 8.8 29.9 8.8 19.8 0 31.3-10.2 11.4-10.1 13.6-27.4h-47.3v-29.8h84.9v14.1q0 28.6-11 47.9-11 19.4-29.9 29.2-18.9 9.7-43.1 9.7z"/>
		<path id="Layer" class="s0" d="m962.5 429.6v-182.6h125.8v33.1h-87.8v41h76.5v31.8h-76.5v43.7h89.1v33c0 0-127.1 0-127.1 0z"/>
		<path id="Layer" fill-rule="evenodd" class="s0" d="m1119.5 429.6v-182.6h74q20.2 0 34.7 7.2 14.4 7.1 22.2 19.7 7.7 12.6 7.7 29.1 0 18.1-9.1 31.5-9.1 13.5-25.9 19.6l39.7 75.5h-42.2l-36.3-70.3h-26.9v70.3zm73.6-149.7h-35.6v48.3h35.6q12.6 0 19.7-6.9 7.2-6.9 7.2-17 0-10.4-7.2-17.4-7.1-7-19.7-7z"/>
		<path id="Layer" class="s0" d="m913.7 1.6h61.5v182.6h-61.5z"/>
		<path id="Layer" class="s0" d="m1010.5 1.6h61.5v182.6h-61.5z"/>
		<path id="Layer" class="s0" d="m1107.2 1.6h61.5v91.3h-61.5z"/>
		<path id="Layer" class="s0" d="m1203.9 1.6h61.5v182.6h-61.5z"/>
	</g>
</svg>